<svg xmlns="http://www.w3.org/2000/svg" width="110" height="26" viewBox="0 0 110 26">
    <defs>
        <linearGradient id="a" x1="18.281%" x2="90.632%" y1="75.001%" y2="25.676%">
            <stop offset="0%" stop-color="#CDE6E1"/>
            <stop offset="100%" stop-color="#FFF"/>
        </linearGradient>
        <linearGradient id="b" x1="0%" x2="99.998%" y1="50%" y2="50%">
            <stop offset="10%" stop-color="#CDE6E1"/>
            <stop offset="100%" stop-color="#FFF"/>
        </linearGradient>
        <linearGradient id="c" x1="0%" x2="99.998%" y1="50%" y2="50%">
            <stop offset="10%" stop-color="#CDE6E1"/>
            <stop offset="100%" stop-color="#FFF"/>
        </linearGradient>
    </defs>
    <g fill="none" fill-rule="nonzero">
        <path fill="url(#a)" d="M18.135 18.516S16.234 20.8 12.732 20.8c-4.219 0-7.639-3.492-7.639-7.8s3.42-7.8 7.64-7.8c3.5 0 5.402 2.285 5.402 2.285a2.51 2.51 0 0 0 2.46.673 2.574 2.574 0 0 0 1.8-1.839 2.638 2.638 0 0 0-.66-2.511S18.423 0 12.733 0C5.701 0 0 5.82 0 13s5.7 13 12.732 13c5.69 0 9.004-3.808 9.004-3.808a2.639 2.639 0 0 0-.015-3.661 2.51 2.51 0 0 0-3.586-.015z"/>
        <path fill="url(#b)" d="M56.674 18.516s-1.9 2.284-5.401 2.284c-4.22 0-7.64-3.492-7.64-7.8s3.42-7.8 7.64-7.8c3.501 0 5.401 2.285 5.401 2.285a2.511 2.511 0 0 0 2.46.673 2.574 2.574 0 0 0 1.801-1.839 2.638 2.638 0 0 0-.66-2.511S56.964 0 51.274 0C44.24 0 38.54 5.82 38.54 13s5.7 13 12.733 13c5.69 0 9.003-3.808 9.003-3.808a2.639 2.639 0 0 0 0-3.677 2.51 2.51 0 0 0-3.602 0z"/>
        <path fill="url(#c)" d="M105.653 18.516s-1.9 2.284-5.402 2.284c-4.22 0-7.64-3.492-7.64-7.8s3.42-7.8 7.64-7.8c3.501 0 5.402 2.285 5.402 2.285a2.51 2.51 0 0 0 3.601 0 2.639 2.639 0 0 0 0-3.677S105.941 0 100.251 0c-7.032 0-12.733 5.82-12.733 13s5.7 13 12.733 13c5.69 0 9.003-3.808 9.003-3.808a2.639 2.639 0 0 0 0-3.677 2.51 2.51 0 0 0-3.601 0z"/>
        <path fill="#FFF" d="M60.276 18.594a2.533 2.533 0 0 0-1.8-.754c-.676 0-1.324.271-1.801.754 0 0-1.9 2.26-5.402 2.26-4.22 0-7.64-3.456-7.64-7.719 0-1.42-1.14-2.572-2.546-2.572-1.407 0-2.547 1.151-2.547 2.572C38.54 20.24 44.24 26 51.273 26c5.69 0 9.003-3.768 9.003-3.768a2.592 2.592 0 0 0 0-3.638zM91.252 3.99a2.524 2.524 0 0 1 3.587.015 2.602 2.602 0 0 1 .014 3.632 7.766 7.766 0 0 0-2.242 5.47c0 4.272 3.42 7.736 7.64 7.736 3.501 0 5.402-2.266 5.402-2.266a2.524 2.524 0 0 1 3.601 0 2.602 2.602 0 0 1 0 3.647S105.941 26 100.251 26c-7.032 0-12.733-5.772-12.733-12.893a12.94 12.94 0 0 1 3.734-9.117zM68.65 0a2.926 2.926 0 0 0-1.989.76 2.502 2.502 0 0 0-.822 1.84v20.8c0 1.436 1.259 2.6 2.81 2.6 1.553 0 2.81-1.164 2.81-2.6V2.6c.002-.69-.294-1.352-.821-1.84A2.926 2.926 0 0 0 68.65 0zM30.912 11.375c-.745 0-1.46.27-1.988.75a2.454 2.454 0 0 0-.822 1.816v7.056c0 1.417 1.258 2.566 2.81 2.566s2.81-1.15 2.81-2.566V13.94c.002-.681-.294-1.334-.821-1.815a2.948 2.948 0 0 0-1.989-.751z"/>
        <ellipse cx="30.505" cy="5.526" fill="#FFF" rx="2.9" ry="2.925" transform="rotate(-1.71 30.505 5.526)"/>
        <path fill="#FFF" d="M79.088 11.375c-.746 0-1.461.27-1.989.75a2.454 2.454 0 0 0-.822 1.816v7.056c0 1.417 1.259 2.566 2.81 2.566 1.553 0 2.81-1.15 2.81-2.566V13.94c.002-.681-.294-1.334-.821-1.815a2.948 2.948 0 0 0-1.988-.751z"/>
        <ellipse cx="79.49" cy="5.521" fill="#FFF" rx="2.9" ry="2.925" transform="rotate(-1.91 79.49 5.52)"/>
        <path fill="#FFF" d="M22.517 18.625a2.653 2.653 0 0 0-1.854-.75c-.695 0-1.362.27-1.854.75 0 0-1.956 2.251-5.56 2.251-3.536 0-5.562-2.25-5.562-2.25-1.024-1.001-2.684-1.001-3.707 0a2.52 2.52 0 0 0 0 3.622S7.39 26 13.247 26c5.858 0 9.269-3.752 9.269-3.752a2.52 2.52 0 0 0 0-3.623z"/>
    </g>
</svg>
